<?xml version="1.0" encoding="UTF-8" standalone="no"?>
<!DOCTYPE svg PUBLIC "-//W3C//DTD SVG 1.1//EN"
 "http://www.w3.org/Graphics/SVG/1.1/DTD/svg11.dtd">
<!-- Generated by graphviz version 2.42.1 (20190717.1914)
 -->
<!-- Title: user_review_flow Pages: 1 -->
<svg width="384pt" height="188pt"
 viewBox="0.00 0.00 384.44 188.00" xmlns="http://www.w3.org/2000/svg" xmlns:xlink="http://www.w3.org/1999/xlink">
<g id="graph0" class="graph" transform="scale(1 1) rotate(0) translate(4 184)">
<title>user_review_flow</title>
<polygon fill="white" stroke="transparent" points="-4,4 -4,-184 380.44,-184 380.44,4 -4,4"/>
<!-- 商品 -->
<g id="node1" class="node">
<title>商品</title>
<ellipse fill="none" stroke="black" cx="48.1" cy="-162" rx="29.5" ry="18"/>
<text text-anchor="middle" x="48.1" y="-158.3" font-family="Times,serif" font-size="14.00">商品</text>
</g>
<!-- ユーザ -->
<g id="node2" class="node">
<title>ユーザ</title>
<ellipse fill="none" stroke="black" cx="48.1" cy="-90" rx="38.19" ry="18"/>
<text text-anchor="middle" x="48.1" y="-86.3" font-family="Times,serif" font-size="14.00">ユーザ</text>
</g>
<!-- 商品&#45;&gt;ユーザ -->
<g id="edge1" class="edge">
<title>商品&#45;&gt;ユーザ</title>
<path fill="none" stroke="black" d="M48.1,-143.59C48.1,-135.94 48.1,-126.89 48.1,-118.43"/>
<polygon fill="black" stroke="black" points="51.6,-118.17 48.1,-108.17 44.6,-118.17 51.6,-118.17"/>
<text text-anchor="middle" x="37.6" y="-122.3" font-family="Times,serif" font-size="14.00">購入・利用</text>
</g>
<!-- クチコミ -->
<g id="node3" class="node">
<title>クチコミ</title>
<ellipse fill="none" stroke="black" cx="48.1" cy="-18" rx="48.19" ry="18"/>
<text text-anchor="middle" x="48.1" y="-14.3" font-family="Times,serif" font-size="14.00">クチコミ</text>
</g>
<!-- ユーザ&#45;&gt;クチコミ -->
<g id="edge2" class="edge">
<title>ユーザ&#45;&gt;クチコミ</title>
<path fill="none" stroke="black" d="M48.1,-71.59C48.1,-63.94 48.1,-54.89 48.1,-46.43"/>
<polygon fill="black" stroke="black" points="51.6,-46.17 48.1,-36.17 44.6,-46.17 51.6,-46.17"/>
<text text-anchor="middle" x="37.6" y="-50.3" font-family="Times,serif" font-size="14.00">表現</text>
</g>
<!-- 未来のユーザ\n=消費者 -->
<g id="node4" class="node">
<title>未来のユーザ\n=消費者</title>
<ellipse fill="none" stroke="black" cx="304.32" cy="-90" rx="72.25" ry="26.74"/>
<text text-anchor="middle" x="304.32" y="-93.8" font-family="Times,serif" font-size="14.00">未来のユーザ</text>
<text text-anchor="middle" x="304.32" y="-78.8" font-family="Times,serif" font-size="14.00">=消費者</text>
</g>
<!-- クチコミ&#45;&gt;未来のユーザ\n=消費者 -->
<g id="edge3" class="edge">
<title>クチコミ&#45;&gt;未来のユーザ\n=消費者</title>
<path fill="none" stroke="black" d="M86.88,-28.7C126.35,-39.88 189.05,-57.64 236.83,-71.17"/>
<polygon fill="black" stroke="black" points="235.9,-74.54 246.48,-73.9 237.81,-67.81 235.9,-74.54"/>
<text text-anchor="middle" x="164.19" y="-67.8" font-family="Times,serif" font-size="14.00">商品評価の形成</text>
</g>
<!-- 未来のユーザ\n=消費者&#45;&gt;商品 -->
<g id="edge4" class="edge">
<title>未来のユーザ\n=消費者&#45;&gt;商品</title>
<path fill="none" stroke="black" d="M246.31,-106.15C196.76,-120.18 126.54,-140.07 84.63,-151.94"/>
<polygon fill="black" stroke="black" points="83.54,-148.61 74.87,-154.7 85.45,-155.34 83.54,-148.61"/>
<text text-anchor="middle" x="164.19" y="-145.8" font-family="Times,serif" font-size="14.00">購買意思決定</text>
</g>
</g>
</svg>
