<?xml version="1.0" encoding="UTF-8" standalone="no"?>
<!DOCTYPE svg PUBLIC "-//W3C//DTD SVG 1.1//EN"
 "http://www.w3.org/Graphics/SVG/1.1/DTD/svg11.dtd">
<!-- Generated by graphviz version 2.43.0 (0)
 -->
<!-- Title: user_review_flow Pages: 1 -->
<svg width="393pt" height="205pt"
 viewBox="0.00 0.00 392.90 204.87" xmlns="http://www.w3.org/2000/svg" xmlns:xlink="http://www.w3.org/1999/xlink">
<g id="graph0" class="graph" transform="scale(1 1) rotate(0) translate(4 200.87)">
<title>user_review_flow</title>
<polygon fill="white" stroke="transparent" points="-4,4 -4,-200.87 388.9,-200.87 388.9,4 -4,4"/>
<!-- サービス\n製品 -->
<g id="node1" class="node">
<title>サービス\n製品</title>
<ellipse fill="none" stroke="black" cx="52.33" cy="-170" rx="52.15" ry="26.74"/>
<text text-anchor="middle" x="52.33" y="-173.8" font-family="Times,serif" font-size="14.00">サービス</text>
<text text-anchor="middle" x="52.33" y="-158.8" font-family="Times,serif" font-size="14.00">製品</text>
</g>
<!-- ユーザ -->
<g id="node2" class="node">
<title>ユーザ</title>
<ellipse fill="none" stroke="black" cx="52.33" cy="-90" rx="38.19" ry="18"/>
<text text-anchor="middle" x="52.33" y="-86.3" font-family="Times,serif" font-size="14.00">ユーザ</text>
</g>
<!-- サービス\n製品&#45;&gt;ユーザ -->
<g id="edge1" class="edge">
<title>サービス\n製品&#45;&gt;ユーザ</title>
<path fill="none" stroke="black" d="M52.33,-143.11C52.33,-135.11 52.33,-126.33 52.33,-118.25"/>
<polygon fill="black" stroke="black" points="55.83,-118.15 52.33,-108.15 48.83,-118.15 55.83,-118.15"/>
<text text-anchor="middle" x="41.83" y="-121.86" font-family="Times,serif" font-size="14.00">UX</text>
</g>
<!-- クチコミ -->
<g id="node3" class="node">
<title>クチコミ</title>
<ellipse fill="none" stroke="black" cx="52.33" cy="-18" rx="48.19" ry="18"/>
<text text-anchor="middle" x="52.33" y="-14.3" font-family="Times,serif" font-size="14.00">クチコミ</text>
</g>
<!-- ユーザ&#45;&gt;クチコミ -->
<g id="edge2" class="edge">
<title>ユーザ&#45;&gt;クチコミ</title>
<path fill="none" stroke="black" d="M52.33,-71.59C52.33,-63.94 52.33,-54.89 52.33,-46.43"/>
<polygon fill="black" stroke="black" points="55.83,-46.17 52.33,-36.17 48.83,-46.17 55.83,-46.17"/>
<text text-anchor="middle" x="41.83" y="-50.3" font-family="Times,serif" font-size="14.00">表現</text>
</g>
<!-- 未来のユーザ\n=消費者 -->
<g id="node4" class="node">
<title>未来のユーザ\n=消費者</title>
<ellipse fill="none" stroke="black" cx="312.78" cy="-94" rx="72.25" ry="26.74"/>
<text text-anchor="middle" x="312.78" y="-97.8" font-family="Times,serif" font-size="14.00">未来のユーザ</text>
<text text-anchor="middle" x="312.78" y="-82.8" font-family="Times,serif" font-size="14.00">=消費者</text>
</g>
<!-- クチコミ&#45;&gt;未来のユーザ\n=消費者 -->
<g id="edge3" class="edge">
<title>クチコミ&#45;&gt;未来のユーザ\n=消費者</title>
<path fill="none" stroke="black" d="M90.63,-28.97C131.13,-40.88 196.59,-60.13 245.81,-74.6"/>
<polygon fill="black" stroke="black" points="244.84,-77.97 255.42,-77.43 246.82,-71.25 244.84,-77.97"/>
<text text-anchor="middle" x="172.65" y="-70.8" font-family="Times,serif" font-size="14.00">商品評価の形成</text>
</g>
<!-- 未来のユーザ\n=消費者&#45;&gt;サービス\n製品 -->
<g id="edge4" class="edge">
<title>未来のユーザ\n=消費者&#45;&gt;サービス\n製品</title>
<path fill="none" stroke="black" d="M255.43,-110.57C211.61,-123.45 151.19,-141.22 107.85,-153.97"/>
<polygon fill="black" stroke="black" points="106.66,-150.67 98.05,-156.85 108.63,-157.39 106.66,-150.67"/>
<text text-anchor="middle" x="172.65" y="-150.8" font-family="Times,serif" font-size="14.00">購買意思決定</text>
</g>
</g>
</svg>
